<mxfile host="app.diagrams.net" modified="2022-11-20T19:55:33.384Z" agent="5.0 (Windows NT 10.0; Win64; x64) AppleWebKit/537.36 (KHTML, like Gecko) Chrome/106.0.0.0 YaBrowser/22.11.0.2419 Yowser/2.5 Safari/537.36" etag="XqaaMxySls0-QYPfBpYC" version="20.5.3" type="github" pages="6">
  <diagram id="huLMLbhZIxbJA-nR9jD1" name="Друид">
    <mxGraphModel dx="1038" dy="575" grid="1" gridSize="10" guides="1" tooltips="1" connect="1" arrows="1" fold="1" page="1" pageScale="1" pageWidth="583" pageHeight="413" math="0" shadow="0">
      <root>
        <mxCell id="0" />
        <mxCell id="1" parent="0" />
        <mxCell id="fI6qUcuZu2PE9BLPs_x8-1" value="Круг цветения" style="ellipse;whiteSpace=wrap;html=1;aspect=fixed;fontFamily=Caveat;fontColor=default;verticalAlign=middle;horizontal=1;sketch=1;fontSource=https%3A%2F%2Ffonts.googleapis.com%2Fcss%3Ffamily%3DCaveat;fontSize=16;" parent="1" vertex="1">
          <mxGeometry x="242" y="41" width="100" height="100" as="geometry" />
        </mxCell>
        <mxCell id="fI6qUcuZu2PE9BLPs_x8-2" value="Круг зверей" style="ellipse;whiteSpace=wrap;html=1;aspect=fixed;fontFamily=Caveat;fontColor=default;sketch=1;fontSource=https%3A%2F%2Ffonts.googleapis.com%2Fcss%3Ffamily%3DCaveat;fontSize=16;" parent="1" vertex="1">
          <mxGeometry x="122" y="141" width="100" height="100" as="geometry" />
        </mxCell>
        <mxCell id="fI6qUcuZu2PE9BLPs_x8-3" value="Круг мицелия" style="ellipse;whiteSpace=wrap;html=1;aspect=fixed;fontFamily=Caveat;fontColor=default;sketch=1;fontSource=https%3A%2F%2Ffonts.googleapis.com%2Fcss%3Ffamily%3DCaveat;fontSize=16;" parent="1" vertex="1">
          <mxGeometry x="362" y="141" width="100" height="100" as="geometry" />
        </mxCell>
        <mxCell id="fI6qUcuZu2PE9BLPs_x8-4" value="Круг разложения" style="ellipse;whiteSpace=wrap;html=1;aspect=fixed;fontFamily=Caveat;fontColor=default;sketch=1;fontSource=https%3A%2F%2Ffonts.googleapis.com%2Fcss%3Ffamily%3DCaveat;fontSize=16;" parent="1" vertex="1">
          <mxGeometry x="322" y="271" width="100" height="100" as="geometry" />
        </mxCell>
        <mxCell id="fI6qUcuZu2PE9BLPs_x8-5" value="Круг насекомых" style="ellipse;whiteSpace=wrap;html=1;aspect=fixed;fontFamily=Caveat;fontColor=default;rotation=0;sketch=1;fontSource=https%3A%2F%2Ffonts.googleapis.com%2Fcss%3Ffamily%3DCaveat;fontSize=16;" parent="1" vertex="1">
          <mxGeometry x="162" y="271" width="100" height="100" as="geometry" />
        </mxCell>
        <mxCell id="fI6qUcuZu2PE9BLPs_x8-6" value="" style="endArrow=none;html=1;rounded=0;fontFamily=Caveat;fontColor=default;exitX=0.5;exitY=0;exitDx=0;exitDy=0;entryX=0;entryY=0.5;entryDx=0;entryDy=0;dashed=1;sketch=1;fontSource=https%3A%2F%2Ffonts.googleapis.com%2Fcss%3Ffamily%3DCaveat;fontSize=16;edgeStyle=orthogonalEdgeStyle;curved=1;" parent="1" source="fI6qUcuZu2PE9BLPs_x8-2" target="fI6qUcuZu2PE9BLPs_x8-1" edge="1">
          <mxGeometry width="50" height="50" relative="1" as="geometry">
            <mxPoint x="242" y="231" as="sourcePoint" />
            <mxPoint x="292" y="181" as="targetPoint" />
          </mxGeometry>
        </mxCell>
        <mxCell id="fI6qUcuZu2PE9BLPs_x8-7" value="" style="endArrow=none;html=1;rounded=0;fontFamily=Caveat;fontColor=default;exitX=1;exitY=1;exitDx=0;exitDy=0;entryX=0;entryY=1;entryDx=0;entryDy=0;dashed=1;sketch=1;fontSource=https%3A%2F%2Ffonts.googleapis.com%2Fcss%3Ffamily%3DCaveat;fontSize=16;edgeStyle=orthogonalEdgeStyle;curved=1;" parent="1" source="fI6qUcuZu2PE9BLPs_x8-5" target="fI6qUcuZu2PE9BLPs_x8-4" edge="1">
          <mxGeometry width="50" height="50" relative="1" as="geometry">
            <mxPoint x="242" y="231" as="sourcePoint" />
            <mxPoint x="292" y="181" as="targetPoint" />
          </mxGeometry>
        </mxCell>
        <mxCell id="fI6qUcuZu2PE9BLPs_x8-8" value="" style="endArrow=none;html=1;rounded=0;fontFamily=Caveat;fontColor=default;exitX=0.5;exitY=1;exitDx=0;exitDy=0;entryX=1;entryY=0;entryDx=0;entryDy=0;dashed=1;sketch=1;fontSource=https%3A%2F%2Ffonts.googleapis.com%2Fcss%3Ffamily%3DCaveat;fontSize=16;edgeStyle=orthogonalEdgeStyle;curved=1;" parent="1" source="fI6qUcuZu2PE9BLPs_x8-3" target="fI6qUcuZu2PE9BLPs_x8-4" edge="1">
          <mxGeometry width="50" height="50" relative="1" as="geometry">
            <mxPoint x="242" y="231" as="sourcePoint" />
            <mxPoint x="292" y="181" as="targetPoint" />
          </mxGeometry>
        </mxCell>
        <mxCell id="fI6qUcuZu2PE9BLPs_x8-9" value="" style="endArrow=none;html=1;rounded=0;fontFamily=Caveat;fontColor=default;entryX=0.5;entryY=1;entryDx=0;entryDy=0;exitX=0;exitY=0;exitDx=0;exitDy=0;dashed=1;sketch=1;fontSource=https%3A%2F%2Ffonts.googleapis.com%2Fcss%3Ffamily%3DCaveat;fontSize=16;edgeStyle=orthogonalEdgeStyle;curved=1;" parent="1" source="fI6qUcuZu2PE9BLPs_x8-5" target="fI6qUcuZu2PE9BLPs_x8-2" edge="1">
          <mxGeometry width="50" height="50" relative="1" as="geometry">
            <mxPoint x="242" y="231" as="sourcePoint" />
            <mxPoint x="292" y="181" as="targetPoint" />
          </mxGeometry>
        </mxCell>
        <mxCell id="fI6qUcuZu2PE9BLPs_x8-10" value="" style="endArrow=none;html=1;rounded=0;fontFamily=Caveat;fontColor=default;entryX=1;entryY=0.5;entryDx=0;entryDy=0;exitX=0.5;exitY=0;exitDx=0;exitDy=0;dashed=1;sketch=1;fontSource=https%3A%2F%2Ffonts.googleapis.com%2Fcss%3Ffamily%3DCaveat;fontSize=16;edgeStyle=orthogonalEdgeStyle;curved=1;" parent="1" source="fI6qUcuZu2PE9BLPs_x8-3" target="fI6qUcuZu2PE9BLPs_x8-1" edge="1">
          <mxGeometry width="50" height="50" relative="1" as="geometry">
            <mxPoint x="242" y="231" as="sourcePoint" />
            <mxPoint x="292" y="181" as="targetPoint" />
          </mxGeometry>
        </mxCell>
      </root>
    </mxGraphModel>
  </diagram>
  <diagram id="ENNLGsQQIt6a2GsereUm" name="Кинетик">
    <mxGraphModel dx="1038" dy="575" grid="1" gridSize="10" guides="1" tooltips="1" connect="1" arrows="1" fold="1" page="1" pageScale="1" pageWidth="827" pageHeight="583" math="0" shadow="0">
      <root>
        <mxCell id="0" />
        <mxCell id="1" parent="0" />
        <UserObject label="%:mountain:%" placeholders="1" lucidchartObjectId="s9P9tor-0r3." id="OegaRkWrLAq_J_56ieli-1">
          <mxCell style="html=1;overflow=block;blockSpacing=1;whiteSpace=wrap;ellipse;fontSize=30;fontColor=#323e45;spacing=3.8;strokeColor=#8ca88e;strokeOpacity=100;rounded=1;absoluteArcSize=1;arcSize=9;fillColor=#CBD2C6;strokeWidth=2.3;" vertex="1" parent="1">
            <mxGeometry x="594" y="261" width="60" height="60" as="geometry" />
          </mxCell>
        </UserObject>
        <UserObject label=" %:ocean:%" placeholders="1" lucidchartObjectId="Q-P9vsxCaPl6" id="OegaRkWrLAq_J_56ieli-2">
          <mxCell style="html=1;overflow=block;blockSpacing=1;whiteSpace=wrap;ellipse;fontSize=30;fontColor=#323e45;spacing=3.8;strokeColor=#8ca88e;strokeOpacity=100;rounded=1;absoluteArcSize=1;arcSize=9;fillColor=#CBD2C6;strokeWidth=2.3;" vertex="1" parent="1">
            <mxGeometry x="384" y="471" width="60" height="60" as="geometry" />
          </mxCell>
        </UserObject>
        <UserObject label="%:tornado:%" placeholders="1" lucidchartObjectId="~-P93BweZ-yO" id="OegaRkWrLAq_J_56ieli-4">
          <mxCell style="html=1;overflow=block;blockSpacing=1;whiteSpace=wrap;ellipse;fontSize=30;fontColor=#323e45;spacing=3.8;strokeColor=#8ca88e;strokeOpacity=100;rounded=1;absoluteArcSize=1;arcSize=9;fillColor=#CBD2C6;strokeWidth=2.3;" vertex="1" parent="1">
            <mxGeometry x="384" y="51" width="60" height="60" as="geometry" />
          </mxCell>
        </UserObject>
        <UserObject label="%:nut_and_bolt:%" placeholders="1" lucidchartObjectId="t.P9vmasJTDX" id="OegaRkWrLAq_J_56ieli-6">
          <mxCell style="html=1;overflow=block;blockSpacing=1;whiteSpace=wrap;ellipse;fontSize=30;fontColor=#323e45;spacing=3.8;strokeColor=#8ca88e;strokeOpacity=100;rounded=1;absoluteArcSize=1;arcSize=9;fillColor=#CBD2C6;strokeWidth=2.3;" vertex="1" parent="1">
            <mxGeometry x="512" y="261" width="60" height="60" as="geometry" />
          </mxCell>
        </UserObject>
        <UserObject label="%:drop_of_blood:%" placeholders="1" lucidchartObjectId="C.P9ND6BV1kR" id="OegaRkWrLAq_J_56ieli-7">
          <mxCell style="html=1;overflow=block;blockSpacing=1;whiteSpace=wrap;ellipse;fontSize=30;fontColor=#323e45;spacing=3.8;strokeColor=#8ca88e;strokeOpacity=100;rounded=1;absoluteArcSize=1;arcSize=9;fillColor=#CBD2C6;strokeWidth=2.3;" vertex="1" parent="1">
            <mxGeometry x="384" y="381" width="60" height="60" as="geometry" />
          </mxCell>
        </UserObject>
        <UserObject label="%:milky_way:%" placeholders="1" lucidchartObjectId="D~P9BdEEGwOY" id="OegaRkWrLAq_J_56ieli-9">
          <mxCell style="html=1;overflow=block;blockSpacing=1;whiteSpace=wrap;ellipse;fontSize=30;fontColor=#323e45;spacing=3.8;strokeColor=#8ca88e;strokeOpacity=100;rounded=1;absoluteArcSize=1;arcSize=9;fillColor=#CBD2C6;strokeWidth=2.3;" vertex="1" parent="1">
            <mxGeometry x="384" y="141" width="60" height="60" as="geometry" />
          </mxCell>
        </UserObject>
        <UserObject label="%:desert:%" placeholders="1" lucidchartObjectId="ybQ9pAd7XxaI" id="OegaRkWrLAq_J_56ieli-11">
          <mxCell style="html=1;overflow=block;blockSpacing=1;whiteSpace=wrap;ellipse;fontSize=30;fontColor=#323e45;spacing=3.8;strokeColor=#8ca88e;strokeOpacity=100;rounded=1;absoluteArcSize=1;arcSize=9;fillColor=#CBD2C6;strokeWidth=2.3;" vertex="1" parent="1">
            <mxGeometry x="534" y="111" width="60" height="60" as="geometry" />
          </mxCell>
        </UserObject>
        <UserObject label="%:bricks:%" placeholders="1" lucidchartObjectId="RbQ92aloWnAZ" id="OegaRkWrLAq_J_56ieli-12">
          <mxCell style="html=1;overflow=block;blockSpacing=1;whiteSpace=wrap;ellipse;fontSize=30;fontColor=#323e45;spacing=3.8;strokeColor=#8ca88e;strokeOpacity=100;rounded=1;absoluteArcSize=1;arcSize=9;fillColor=#CBD2C6;strokeWidth=2.3;" vertex="1" parent="1">
            <mxGeometry x="534" y="411" width="60" height="60" as="geometry" />
          </mxCell>
        </UserObject>
        <UserObject label="%:fog:%" placeholders="1" lucidchartObjectId="PcQ91A.u7ftB" id="OegaRkWrLAq_J_56ieli-13">
          <mxCell style="html=1;overflow=block;blockSpacing=1;whiteSpace=wrap;ellipse;fontSize=30;fontColor=#323e45;spacing=3.8;strokeColor=#8ca88e;strokeOpacity=100;rounded=1;absoluteArcSize=1;arcSize=9;fillColor=#CBD2C6;strokeWidth=2.3;" vertex="1" parent="1">
            <mxGeometry x="234" y="411" width="60" height="60" as="geometry" />
          </mxCell>
        </UserObject>
        <UserObject label="" lucidchartObjectId="HdQ9IWmqKjgY" id="OegaRkWrLAq_J_56ieli-14">
          <mxCell style="html=1;jettySize=18;whiteSpace=wrap;fontSize=13;strokeColor=#5A786F;strokeWidth=1.5;rounded=1;arcSize=12;edgeStyle=orthogonalEdgeStyle;startArrow=none;endArrow=block;endFill=1;exitX=1.019;exitY=0.5;exitPerimeter=0;entryX=0.5;entryY=-0.019;entryPerimeter=0;" edge="1" parent="1" source="OegaRkWrLAq_J_56ieli-4" target="OegaRkWrLAq_J_56ieli-11">
            <mxGeometry width="100" height="100" relative="1" as="geometry">
              <Array as="points" />
            </mxGeometry>
          </mxCell>
        </UserObject>
        <UserObject label="" lucidchartObjectId="MdQ9G~q0PNTW" id="OegaRkWrLAq_J_56ieli-15">
          <mxCell style="html=1;jettySize=18;whiteSpace=wrap;fontSize=13;strokeColor=#5A786F;strokeWidth=1.5;rounded=1;arcSize=12;edgeStyle=orthogonalEdgeStyle;startArrow=none;endArrow=block;endFill=1;exitX=-0.019;exitY=0.5;exitPerimeter=0;entryX=0.5;entryY=-0.019;entryPerimeter=0;" edge="1" parent="1" source="OegaRkWrLAq_J_56ieli-4">
            <mxGeometry width="100" height="100" relative="1" as="geometry">
              <Array as="points" />
              <mxPoint x="264" y="109.86000000000001" as="targetPoint" />
            </mxGeometry>
          </mxCell>
        </UserObject>
        <UserObject label="" lucidchartObjectId="OdQ9CskoWgGT" id="OegaRkWrLAq_J_56ieli-16">
          <mxCell style="html=1;jettySize=18;whiteSpace=wrap;fontSize=13;strokeColor=#5A786F;strokeWidth=1.5;rounded=1;arcSize=12;edgeStyle=orthogonalEdgeStyle;startArrow=none;endArrow=block;endFill=1;exitX=0.5;exitY=-0.019;exitPerimeter=0;entryX=-0.019;entryY=0.5;entryPerimeter=0;" edge="1" parent="1">
            <mxGeometry width="100" height="100" relative="1" as="geometry">
              <Array as="points" />
              <mxPoint x="204" y="259.86" as="sourcePoint" />
              <mxPoint x="232.8599999999999" y="141" as="targetPoint" />
            </mxGeometry>
          </mxCell>
        </UserObject>
        <UserObject label="" lucidchartObjectId="RdQ9Y8QIoDHU" id="OegaRkWrLAq_J_56ieli-17">
          <mxCell style="html=1;jettySize=18;whiteSpace=wrap;fontSize=13;strokeColor=#5A786F;strokeWidth=1.5;rounded=1;arcSize=12;edgeStyle=orthogonalEdgeStyle;startArrow=none;endArrow=block;endFill=1;exitX=0.5;exitY=1.019;exitPerimeter=0;entryX=-0.019;entryY=0.5;entryPerimeter=0;" edge="1" parent="1" target="OegaRkWrLAq_J_56ieli-13">
            <mxGeometry width="100" height="100" relative="1" as="geometry">
              <Array as="points" />
              <mxPoint x="204" y="322.14" as="sourcePoint" />
            </mxGeometry>
          </mxCell>
        </UserObject>
        <UserObject label="" lucidchartObjectId="TdQ9DQgJ3Z_d" id="OegaRkWrLAq_J_56ieli-18">
          <mxCell style="html=1;jettySize=18;whiteSpace=wrap;fontSize=13;strokeColor=#5A786F;strokeWidth=1.5;rounded=1;arcSize=12;edgeStyle=orthogonalEdgeStyle;startArrow=none;endArrow=block;endFill=1;exitX=-0.019;exitY=0.5;exitPerimeter=0;entryX=0.5;entryY=1.019;entryPerimeter=0;" edge="1" parent="1" source="OegaRkWrLAq_J_56ieli-2" target="OegaRkWrLAq_J_56ieli-13">
            <mxGeometry width="100" height="100" relative="1" as="geometry">
              <Array as="points" />
            </mxGeometry>
          </mxCell>
        </UserObject>
        <UserObject label="" lucidchartObjectId="WdQ9bgBegkS5" id="OegaRkWrLAq_J_56ieli-19">
          <mxCell style="html=1;jettySize=18;whiteSpace=wrap;fontSize=13;strokeColor=#5A786F;strokeWidth=1.5;rounded=1;arcSize=12;edgeStyle=orthogonalEdgeStyle;startArrow=none;endArrow=block;endFill=1;exitX=1.019;exitY=0.5;exitPerimeter=0;entryX=0.5;entryY=1.019;entryPerimeter=0;" edge="1" parent="1" source="OegaRkWrLAq_J_56ieli-2" target="OegaRkWrLAq_J_56ieli-12">
            <mxGeometry width="100" height="100" relative="1" as="geometry">
              <Array as="points" />
            </mxGeometry>
          </mxCell>
        </UserObject>
        <UserObject label="" lucidchartObjectId="YdQ9WY~QWQFy" id="OegaRkWrLAq_J_56ieli-20">
          <mxCell style="html=1;jettySize=18;whiteSpace=wrap;fontSize=13;strokeColor=#5A786F;strokeWidth=1.5;rounded=1;arcSize=12;edgeStyle=orthogonalEdgeStyle;startArrow=none;endArrow=block;endFill=1;exitX=0.5;exitY=1.019;exitPerimeter=0;entryX=1.019;entryY=0.5;entryPerimeter=0;" edge="1" parent="1" source="OegaRkWrLAq_J_56ieli-1" target="OegaRkWrLAq_J_56ieli-12">
            <mxGeometry width="100" height="100" relative="1" as="geometry">
              <Array as="points" />
            </mxGeometry>
          </mxCell>
        </UserObject>
        <UserObject label="" lucidchartObjectId="1dQ9L1rrVNZ0" id="OegaRkWrLAq_J_56ieli-21">
          <mxCell style="html=1;jettySize=18;whiteSpace=wrap;fontSize=13;strokeColor=#5A786F;strokeWidth=1.5;rounded=1;arcSize=12;edgeStyle=orthogonalEdgeStyle;startArrow=none;endArrow=block;endFill=1;exitX=0.5;exitY=-0.019;exitPerimeter=0;entryX=1.019;entryY=0.5;entryPerimeter=0;" edge="1" parent="1" source="OegaRkWrLAq_J_56ieli-1" target="OegaRkWrLAq_J_56ieli-11">
            <mxGeometry width="100" height="100" relative="1" as="geometry">
              <Array as="points" />
            </mxGeometry>
          </mxCell>
        </UserObject>
        <UserObject label="" lucidchartObjectId="3dQ95u5W29AY" id="OegaRkWrLAq_J_56ieli-22">
          <mxCell style="html=1;jettySize=18;whiteSpace=wrap;fontSize=13;strokeColor=#5A786F;strokeWidth=1.5;rounded=1;arcSize=12;edgeStyle=orthogonalEdgeStyle;startArrow=none;endArrow=block;endFill=1;exitX=-0.019;exitY=0.5;exitPerimeter=0;entryX=1.019;entryY=0.5;entryPerimeter=0;" edge="1" parent="1" source="OegaRkWrLAq_J_56ieli-1" target="OegaRkWrLAq_J_56ieli-6">
            <mxGeometry width="100" height="100" relative="1" as="geometry">
              <Array as="points" />
            </mxGeometry>
          </mxCell>
        </UserObject>
        <UserObject label="" lucidchartObjectId="6dQ94NOcT2wA" id="OegaRkWrLAq_J_56ieli-23">
          <mxCell style="html=1;jettySize=18;whiteSpace=wrap;fontSize=13;strokeColor=#5A786F;strokeWidth=1.5;rounded=1;arcSize=12;edgeStyle=orthogonalEdgeStyle;startArrow=none;endArrow=block;endFill=1;exitX=0.5;exitY=1.019;exitPerimeter=0;entryX=0.5;entryY=-0.019;entryPerimeter=0;" edge="1" parent="1" source="OegaRkWrLAq_J_56ieli-4" target="OegaRkWrLAq_J_56ieli-9">
            <mxGeometry width="100" height="100" relative="1" as="geometry">
              <Array as="points" />
            </mxGeometry>
          </mxCell>
        </UserObject>
        <UserObject label="" lucidchartObjectId="8dQ9rjeu5A07" id="OegaRkWrLAq_J_56ieli-24">
          <mxCell style="html=1;jettySize=18;whiteSpace=wrap;fontSize=13;strokeColor=#5A786F;strokeWidth=1.5;rounded=1;arcSize=12;edgeStyle=orthogonalEdgeStyle;startArrow=none;endArrow=block;endFill=1;exitX=1.019;exitY=0.5;exitPerimeter=0;entryX=-0.019;entryY=0.5;entryPerimeter=0;" edge="1" parent="1">
            <mxGeometry width="100" height="100" relative="1" as="geometry">
              <Array as="points" />
              <mxPoint x="235.1400000000001" y="291" as="sourcePoint" />
              <mxPoint x="262.8599999999999" y="291" as="targetPoint" />
            </mxGeometry>
          </mxCell>
        </UserObject>
        <UserObject label="" lucidchartObjectId="-dQ9JWaO7xam" id="OegaRkWrLAq_J_56ieli-25">
          <mxCell style="html=1;jettySize=18;whiteSpace=wrap;fontSize=13;strokeColor=#5A786F;strokeWidth=1.5;rounded=1;arcSize=12;edgeStyle=orthogonalEdgeStyle;startArrow=none;endArrow=block;endFill=1;exitX=0.5;exitY=-0.019;exitPerimeter=0;entryX=0.5;entryY=1.019;entryPerimeter=0;" edge="1" parent="1" source="OegaRkWrLAq_J_56ieli-2" target="OegaRkWrLAq_J_56ieli-7">
            <mxGeometry width="100" height="100" relative="1" as="geometry">
              <Array as="points" />
            </mxGeometry>
          </mxCell>
        </UserObject>
        <UserObject label="" lucidchartObjectId="neQ985fdt6gv" id="OegaRkWrLAq_J_56ieli-26">
          <mxCell style="html=1;jettySize=18;whiteSpace=wrap;fontSize=13;strokeColor=#5A786F;strokeWidth=1.5;rounded=1;arcSize=12;edgeStyle=orthogonalEdgeStyle;startArrow=none;endArrow=block;endFill=1;exitX=0.5;exitY=0;entryX=0.5;entryY=-0.019;entryPerimeter=0;exitDx=0;exitDy=0;" edge="1" parent="1" source="OegaRkWrLAq_J_56ieli-32">
            <mxGeometry width="100" height="100" relative="1" as="geometry">
              <Array as="points" />
              <mxPoint x="204" y="259.86" as="sourcePoint" />
              <mxPoint x="377" y="259.86" as="targetPoint" />
            </mxGeometry>
          </mxCell>
        </UserObject>
        <UserObject label="%:lightning:%" placeholders="1" lucidchartObjectId="-iQ9kw8Uz~SS" id="OegaRkWrLAq_J_56ieli-27">
          <mxCell style="html=1;overflow=block;blockSpacing=1;whiteSpace=wrap;ellipse;fontSize=30;fontColor=#323e45;spacing=3.8;strokeColor=#8ca88e;strokeOpacity=100;rounded=1;absoluteArcSize=1;arcSize=9;fillColor=#CBD2C6;strokeWidth=2.3;" vertex="1" parent="1">
            <mxGeometry x="429" y="261" width="60" height="60" as="geometry" />
          </mxCell>
        </UserObject>
        <UserObject label="" lucidchartObjectId="tjQ90NhwKvcI" id="OegaRkWrLAq_J_56ieli-28">
          <mxCell style="html=1;jettySize=18;whiteSpace=wrap;fontSize=13;strokeColor=#5A786F;strokeWidth=1.5;rounded=1;arcSize=12;edgeStyle=orthogonalEdgeStyle;startArrow=none;endArrow=block;endFill=1;exitX=1.019;exitY=0.5;exitPerimeter=0;entryX=0.5;entryY=-0.019;entryPerimeter=0;" edge="1" parent="1" source="OegaRkWrLAq_J_56ieli-4" target="OegaRkWrLAq_J_56ieli-27">
            <mxGeometry width="100" height="100" relative="1" as="geometry">
              <Array as="points" />
            </mxGeometry>
          </mxCell>
        </UserObject>
        <UserObject label="" lucidchartObjectId="BjQ9ejOCDhz_" id="OegaRkWrLAq_J_56ieli-29">
          <mxCell style="html=1;jettySize=18;whiteSpace=wrap;fontSize=13;strokeColor=#5A786F;strokeWidth=1.5;rounded=1;arcSize=12;edgeStyle=orthogonalEdgeStyle;startArrow=none;endArrow=block;endFill=1;exitX=1.019;exitY=0.5;exitPerimeter=0;entryX=0.5;entryY=1.019;entryPerimeter=0;" edge="1" parent="1" source="OegaRkWrLAq_J_56ieli-2" target="OegaRkWrLAq_J_56ieli-27">
            <mxGeometry width="100" height="100" relative="1" as="geometry">
              <Array as="points" />
            </mxGeometry>
          </mxCell>
        </UserObject>
        <UserObject label="" lucidchartObjectId="OjQ9ZhsBo-WK" id="OegaRkWrLAq_J_56ieli-30">
          <mxCell style="html=1;jettySize=18;whiteSpace=wrap;fontSize=13;strokeColor=#5A786F;strokeWidth=1.5;rounded=1;arcSize=12;edgeStyle=orthogonalEdgeStyle;startArrow=none;endArrow=block;endFill=1;exitX=0.5;exitY=1.019;exitPerimeter=0;entryX=0.5;entryY=1.019;entryPerimeter=0;" edge="1" parent="1" source="OegaRkWrLAq_J_56ieli-1">
            <mxGeometry width="100" height="100" relative="1" as="geometry">
              <Array as="points" />
              <mxPoint x="377" y="322.14" as="targetPoint" />
            </mxGeometry>
          </mxCell>
        </UserObject>
        <mxCell id="OegaRkWrLAq_J_56ieli-32" value="" style="shape=image;verticalLabelPosition=bottom;verticalAlign=top;imageAspect=0;aspect=fixed;image=data:image/svg+xml,PHN2ZyB4bWxucz0iaHR0cDovL3d3dy53My5vcmcvMjAwMC9zdmciIHZpZXdCb3g9IjAgMCAzNiAzNiI+PHBhdGggZmlsbD0iI0Y0OTAwQyIgZD0iTTM1IDE5YzAtMi4wNjItLjM2Ny00LjAzOS0xLjA0LTUuODY4LS40NiA1LjM4OS0zLjMzMyA4LjE1Ny02LjMzNSA2Ljg2OC0yLjgxMi0xLjIwOC0uOTE3LTUuOTE3LS43NzctOC4xNjQuMjM2LTMuODA5LS4wMTItOC4xNjktNi45MzEtMTEuNzk0IDIuODc1IDUuNS4zMzMgOC45MTctMi4zMzMgOS4xMjUtMi45NTguMjMxLTUuNjY3LTIuNTQyLTQuNjY3LTcuMDQyLTMuMjM4IDIuMzg2LTMuMzMyIDYuNDAyLTIuMzMzIDkgMS4wNDIgMi43MDgtLjA0MiA0Ljk1OC0yLjU4MyA1LjIwOC0yLjg0LjI4LTQuNDE4LTMuMDQxLTIuOTYzLTguMzMzQzIuNTIgMTAuOTY1IDEgMTQuODA1IDEgMTljMCA5LjM4OSA3LjYxMSAxNyAxNyAxN3MxNy03LjYxMSAxNy0xN3oiLz48cGF0aCBmaWxsPSIjRkZDQzREIiBkPSJNMjguMzk0IDIzLjk5OWMuMTQ4IDMuMDg0LTIuNTYxIDQuMjkzLTQuMDE5IDMuNzA5LTIuMTA2LS44NDMtMS41NDEtMi4yOTEtMi4wODMtNS4yOTFzLTIuNjI1LTUuMDgzLTUuNzA4LTZjMi4yNSA2LjMzMy0xLjI0NyA4LjY2Ny0zLjA4IDkuMDg0LTEuODcyLjQyNi0zLjc1My0uMDAxLTMuOTY4LTQuMDA3QzcuMzUyIDIzLjY2OCA2IDI2LjY3NiA2IDMwYzAgLjM2OC4wMjMuNzMuMDU1IDEuMDlDOS4xMjUgMzQuMTI0IDEzLjM0MiAzNiAxOCAzNnM4Ljg3NS0xLjg3NiAxMS45NDUtNC45MWMuMDMyLS4zNi4wNTUtLjcyMi4wNTUtMS4wOSAwLTIuMTg3LS41ODQtNC4yMzYtMS42MDYtNi4wMDF6Ii8+PC9zdmc+" vertex="1" parent="1">
          <mxGeometry x="190" y="274" width="36" height="36" as="geometry" />
        </mxCell>
      </root>
    </mxGraphModel>
  </diagram>
  <diagram id="NY_OgxVOKJnxcvkBMMJs" name="Алхимик">
    <mxGraphModel grid="1" page="1" gridSize="10" guides="1" tooltips="1" connect="1" arrows="1" fold="1" pageScale="1" pageWidth="827" pageHeight="583" math="0" shadow="0">
      <root>
        <mxCell id="0" />
        <mxCell id="1" parent="0" />
        <mxCell id="86-RGEoSRtY8CRuYUMkT-1" style="rounded=0;orthogonalLoop=1;jettySize=auto;html=1;exitX=1;exitY=0.5;exitDx=0;exitDy=0;entryX=0;entryY=0.5;entryDx=0;entryDy=0;edgeStyle=orthogonalEdgeStyle;sketch=1;fontFamily=Caveat;fontSource=https%3A%2F%2Ffonts.googleapis.com%2Fcss%3Ffamily%3DCaveat;fontSize=16;" edge="1" parent="1" source="86-RGEoSRtY8CRuYUMkT-7" target="86-RGEoSRtY8CRuYUMkT-30">
          <mxGeometry relative="1" as="geometry" />
        </mxCell>
        <mxCell id="86-RGEoSRtY8CRuYUMkT-2" style="edgeStyle=orthogonalEdgeStyle;shape=connector;rounded=0;orthogonalLoop=1;jettySize=auto;html=1;exitX=0;exitY=0.5;exitDx=0;exitDy=0;entryX=1;entryY=0.5;entryDx=0;entryDy=0;labelBackgroundColor=default;strokeColor=default;fontFamily=Caveat;fontSize=16;fontColor=default;endArrow=classic;sketch=1;fontSource=https%3A%2F%2Ffonts.googleapis.com%2Fcss%3Ffamily%3DCaveat;" edge="1" parent="1" source="86-RGEoSRtY8CRuYUMkT-7" target="86-RGEoSRtY8CRuYUMkT-32">
          <mxGeometry relative="1" as="geometry" />
        </mxCell>
        <mxCell id="86-RGEoSRtY8CRuYUMkT-3" style="shape=connector;rounded=0;orthogonalLoop=1;jettySize=auto;html=1;exitX=0.5;exitY=1;exitDx=0;exitDy=0;entryX=0.5;entryY=0;entryDx=0;entryDy=0;labelBackgroundColor=default;strokeColor=default;fontFamily=Caveat;fontSize=16;fontColor=default;endArrow=classic;edgeStyle=orthogonalEdgeStyle;sketch=1;fontSource=https%3A%2F%2Ffonts.googleapis.com%2Fcss%3Ffamily%3DCaveat;" edge="1" parent="1" source="86-RGEoSRtY8CRuYUMkT-7" target="86-RGEoSRtY8CRuYUMkT-37">
          <mxGeometry relative="1" as="geometry">
            <Array as="points">
              <mxPoint x="614" y="241" />
            </Array>
          </mxGeometry>
        </mxCell>
        <mxCell id="86-RGEoSRtY8CRuYUMkT-4" style="edgeStyle=orthogonalEdgeStyle;shape=connector;rounded=0;orthogonalLoop=1;jettySize=auto;html=1;exitX=0.5;exitY=0;exitDx=0;exitDy=0;entryX=0.5;entryY=1;entryDx=0;entryDy=0;labelBackgroundColor=default;strokeColor=default;fontFamily=Caveat;fontSize=16;fontColor=default;endArrow=classic;sketch=1;fontSource=https%3A%2F%2Ffonts.googleapis.com%2Fcss%3Ffamily%3DCaveat;" edge="1" parent="1" source="86-RGEoSRtY8CRuYUMkT-7" target="86-RGEoSRtY8CRuYUMkT-34">
          <mxGeometry relative="1" as="geometry" />
        </mxCell>
        <mxCell id="86-RGEoSRtY8CRuYUMkT-5" style="edgeStyle=orthogonalEdgeStyle;shape=connector;rounded=0;orthogonalLoop=1;jettySize=auto;html=1;exitX=0;exitY=1;exitDx=0;exitDy=0;entryX=1;entryY=0;entryDx=0;entryDy=0;labelBackgroundColor=default;strokeColor=default;fontFamily=Caveat;fontSize=16;fontColor=default;endArrow=classic;sketch=1;fontSource=https%3A%2F%2Ffonts.googleapis.com%2Fcss%3Ffamily%3DCaveat;" edge="1" parent="1" source="86-RGEoSRtY8CRuYUMkT-7" target="86-RGEoSRtY8CRuYUMkT-35">
          <mxGeometry relative="1" as="geometry">
            <Array as="points">
              <mxPoint x="386" y="221" />
              <mxPoint x="122" y="221" />
            </Array>
          </mxGeometry>
        </mxCell>
        <mxCell id="86-RGEoSRtY8CRuYUMkT-6" style="edgeStyle=orthogonalEdgeStyle;shape=connector;rounded=0;orthogonalLoop=1;jettySize=auto;html=1;exitX=1;exitY=1;exitDx=0;exitDy=0;entryX=0;entryY=0;entryDx=0;entryDy=0;labelBackgroundColor=default;strokeColor=default;fontFamily=Caveat;fontSize=16;fontColor=default;endArrow=classic;sketch=1;fontSource=https%3A%2F%2Ffonts.googleapis.com%2Fcss%3Ffamily%3DCaveat;" edge="1" parent="1" source="86-RGEoSRtY8CRuYUMkT-7" target="86-RGEoSRtY8CRuYUMkT-33">
          <mxGeometry relative="1" as="geometry">
            <Array as="points">
              <mxPoint x="442" y="221" />
              <mxPoint x="705" y="221" />
            </Array>
          </mxGeometry>
        </mxCell>
        <mxCell id="86-RGEoSRtY8CRuYUMkT-7" value="Механика" style="ellipse;whiteSpace=wrap;html=1;aspect=fixed;direction=east;sketch=1;fontFamily=Caveat;fontSource=https%3A%2F%2Ffonts.googleapis.com%2Fcss%3Ffamily%3DCaveat;fontSize=16;fillColor=#d5e8d4;strokeColor=#82b366;" vertex="1" parent="1">
          <mxGeometry x="374" y="161" width="80" height="80" as="geometry" />
        </mxCell>
        <mxCell id="86-RGEoSRtY8CRuYUMkT-8" style="edgeStyle=orthogonalEdgeStyle;shape=connector;rounded=0;orthogonalLoop=1;jettySize=auto;html=1;exitX=0.5;exitY=0;exitDx=0;exitDy=0;entryX=0.5;entryY=1;entryDx=0;entryDy=0;labelBackgroundColor=default;strokeColor=default;fontFamily=Caveat;fontSize=16;fontColor=default;endArrow=classic;sketch=1;fontSource=https%3A%2F%2Ffonts.googleapis.com%2Fcss%3Ffamily%3DCaveat;" edge="1" parent="1" source="86-RGEoSRtY8CRuYUMkT-14" target="86-RGEoSRtY8CRuYUMkT-30">
          <mxGeometry relative="1" as="geometry" />
        </mxCell>
        <mxCell id="86-RGEoSRtY8CRuYUMkT-9" style="edgeStyle=orthogonalEdgeStyle;shape=connector;rounded=0;orthogonalLoop=1;jettySize=auto;html=1;exitX=0.5;exitY=1;exitDx=0;exitDy=0;entryX=0.5;entryY=0;entryDx=0;entryDy=0;labelBackgroundColor=default;strokeColor=default;fontFamily=Caveat;fontSize=16;fontColor=default;endArrow=classic;sketch=1;fontSource=https%3A%2F%2Ffonts.googleapis.com%2Fcss%3Ffamily%3DCaveat;" edge="1" parent="1" source="86-RGEoSRtY8CRuYUMkT-14" target="86-RGEoSRtY8CRuYUMkT-31">
          <mxGeometry relative="1" as="geometry" />
        </mxCell>
        <mxCell id="86-RGEoSRtY8CRuYUMkT-10" style="edgeStyle=orthogonalEdgeStyle;shape=connector;rounded=0;orthogonalLoop=1;jettySize=auto;html=1;exitX=0;exitY=0.5;exitDx=0;exitDy=0;entryX=0.5;entryY=0;entryDx=0;entryDy=0;labelBackgroundColor=default;strokeColor=default;fontFamily=Caveat;fontSize=16;fontColor=default;endArrow=classic;sketch=1;fontSource=https%3A%2F%2Ffonts.googleapis.com%2Fcss%3Ffamily%3DCaveat;" edge="1" parent="1" source="86-RGEoSRtY8CRuYUMkT-14" target="86-RGEoSRtY8CRuYUMkT-38">
          <mxGeometry relative="1" as="geometry">
            <Array as="points">
              <mxPoint x="384" y="291" />
              <mxPoint x="384" y="241" />
              <mxPoint x="214" y="241" />
            </Array>
          </mxGeometry>
        </mxCell>
        <mxCell id="86-RGEoSRtY8CRuYUMkT-11" style="edgeStyle=orthogonalEdgeStyle;shape=connector;rounded=0;orthogonalLoop=1;jettySize=auto;html=1;exitX=0;exitY=1;exitDx=0;exitDy=0;entryX=1;entryY=0;entryDx=0;entryDy=0;labelBackgroundColor=default;strokeColor=default;fontFamily=Caveat;fontSize=16;fontColor=default;endArrow=classic;sketch=1;fontSource=https%3A%2F%2Ffonts.googleapis.com%2Fcss%3Ffamily%3DCaveat;" edge="1" parent="1" source="86-RGEoSRtY8CRuYUMkT-14" target="86-RGEoSRtY8CRuYUMkT-36">
          <mxGeometry relative="1" as="geometry">
            <Array as="points">
              <mxPoint x="464" y="319" />
              <mxPoint x="464" y="504" />
            </Array>
          </mxGeometry>
        </mxCell>
        <mxCell id="86-RGEoSRtY8CRuYUMkT-12" style="edgeStyle=orthogonalEdgeStyle;shape=connector;rounded=0;orthogonalLoop=1;jettySize=auto;html=1;exitX=0;exitY=0;exitDx=0;exitDy=0;entryX=1;entryY=1;entryDx=0;entryDy=0;labelBackgroundColor=default;strokeColor=default;fontFamily=Caveat;fontSize=16;fontColor=default;endArrow=classic;sketch=1;fontSource=https%3A%2F%2Ffonts.googleapis.com%2Fcss%3Ffamily%3DCaveat;" edge="1" parent="1" source="86-RGEoSRtY8CRuYUMkT-14" target="86-RGEoSRtY8CRuYUMkT-34">
          <mxGeometry relative="1" as="geometry">
            <Array as="points">
              <mxPoint x="464" y="263" />
              <mxPoint x="464" y="79" />
            </Array>
          </mxGeometry>
        </mxCell>
        <mxCell id="86-RGEoSRtY8CRuYUMkT-13" style="edgeStyle=orthogonalEdgeStyle;shape=connector;rounded=0;orthogonalLoop=1;jettySize=auto;html=1;exitX=1;exitY=0;exitDx=0;exitDy=0;entryX=0;entryY=0.5;entryDx=0;entryDy=0;labelBackgroundColor=default;strokeColor=default;fontFamily=Caveat;fontSize=16;fontColor=default;endArrow=classic;sketch=1;fontSource=https%3A%2F%2Ffonts.googleapis.com%2Fcss%3Ffamily%3DCaveat;" edge="1" parent="1" source="86-RGEoSRtY8CRuYUMkT-14" target="86-RGEoSRtY8CRuYUMkT-33">
          <mxGeometry relative="1" as="geometry">
            <Array as="points">
              <mxPoint x="554" y="263" />
              <mxPoint x="554" y="231" />
              <mxPoint x="664" y="231" />
              <mxPoint x="664" y="291" />
            </Array>
          </mxGeometry>
        </mxCell>
        <mxCell id="86-RGEoSRtY8CRuYUMkT-14" value="Вивисекция" style="ellipse;whiteSpace=wrap;html=1;aspect=fixed;direction=east;sketch=1;fontFamily=Caveat;fontSource=https%3A%2F%2Ffonts.googleapis.com%2Fcss%3Ffamily%3DCaveat;fontSize=16;fillColor=#f8cecc;strokeColor=#b85450;" vertex="1" parent="1">
          <mxGeometry x="464" y="251" width="80" height="80" as="geometry" />
        </mxCell>
        <mxCell id="86-RGEoSRtY8CRuYUMkT-15" style="edgeStyle=orthogonalEdgeStyle;shape=connector;rounded=0;orthogonalLoop=1;jettySize=auto;html=1;exitX=1;exitY=0.5;exitDx=0;exitDy=0;entryX=0;entryY=0.5;entryDx=0;entryDy=0;labelBackgroundColor=default;strokeColor=default;fontFamily=Caveat;fontSize=16;fontColor=default;endArrow=classic;sketch=1;fontSource=https%3A%2F%2Ffonts.googleapis.com%2Fcss%3Ffamily%3DCaveat;" edge="1" parent="1" source="86-RGEoSRtY8CRuYUMkT-21" target="86-RGEoSRtY8CRuYUMkT-31">
          <mxGeometry relative="1" as="geometry" />
        </mxCell>
        <mxCell id="86-RGEoSRtY8CRuYUMkT-16" style="edgeStyle=orthogonalEdgeStyle;shape=connector;rounded=0;orthogonalLoop=1;jettySize=auto;html=1;exitX=0;exitY=0.5;exitDx=0;exitDy=0;entryX=1;entryY=0.5;entryDx=0;entryDy=0;labelBackgroundColor=default;strokeColor=default;fontFamily=Caveat;fontSize=16;fontColor=default;endArrow=classic;sketch=1;fontSource=https%3A%2F%2Ffonts.googleapis.com%2Fcss%3Ffamily%3DCaveat;" edge="1" parent="1" source="86-RGEoSRtY8CRuYUMkT-21" target="86-RGEoSRtY8CRuYUMkT-29">
          <mxGeometry relative="1" as="geometry" />
        </mxCell>
        <mxCell id="86-RGEoSRtY8CRuYUMkT-17" style="edgeStyle=orthogonalEdgeStyle;shape=connector;rounded=0;orthogonalLoop=1;jettySize=auto;html=1;exitX=0.5;exitY=0;exitDx=0;exitDy=0;entryX=0.5;entryY=1;entryDx=0;entryDy=0;labelBackgroundColor=default;strokeColor=default;fontFamily=Caveat;fontSize=16;fontColor=default;endArrow=classic;sketch=1;fontSource=https%3A%2F%2Ffonts.googleapis.com%2Fcss%3Ffamily%3DCaveat;" edge="1" parent="1" source="86-RGEoSRtY8CRuYUMkT-21" target="86-RGEoSRtY8CRuYUMkT-37">
          <mxGeometry relative="1" as="geometry">
            <Array as="points">
              <mxPoint x="614" y="341" />
            </Array>
          </mxGeometry>
        </mxCell>
        <mxCell id="86-RGEoSRtY8CRuYUMkT-18" style="edgeStyle=orthogonalEdgeStyle;shape=connector;rounded=0;orthogonalLoop=1;jettySize=auto;html=1;exitX=0.5;exitY=1;exitDx=0;exitDy=0;labelBackgroundColor=default;strokeColor=default;fontFamily=Caveat;fontSize=16;fontColor=default;endArrow=classic;sketch=1;fontSource=https%3A%2F%2Ffonts.googleapis.com%2Fcss%3Ffamily%3DCaveat;" edge="1" parent="1" source="86-RGEoSRtY8CRuYUMkT-21">
          <mxGeometry relative="1" as="geometry">
            <mxPoint x="414.17647058823536" y="490.9999999999998" as="targetPoint" />
          </mxGeometry>
        </mxCell>
        <mxCell id="86-RGEoSRtY8CRuYUMkT-19" style="edgeStyle=orthogonalEdgeStyle;shape=connector;rounded=0;orthogonalLoop=1;jettySize=auto;html=1;exitX=1;exitY=0;exitDx=0;exitDy=0;entryX=0.5;entryY=1;entryDx=0;entryDy=0;labelBackgroundColor=default;strokeColor=default;fontFamily=Caveat;fontSize=16;fontColor=default;endArrow=classic;sketch=1;fontSource=https%3A%2F%2Ffonts.googleapis.com%2Fcss%3Ffamily%3DCaveat;" edge="1" parent="1" source="86-RGEoSRtY8CRuYUMkT-21" target="86-RGEoSRtY8CRuYUMkT-33">
          <mxGeometry relative="1" as="geometry">
            <Array as="points">
              <mxPoint x="442" y="361" />
              <mxPoint x="733" y="361" />
            </Array>
          </mxGeometry>
        </mxCell>
        <mxCell id="86-RGEoSRtY8CRuYUMkT-20" style="edgeStyle=orthogonalEdgeStyle;shape=connector;rounded=0;orthogonalLoop=1;jettySize=auto;html=1;exitX=0;exitY=0;exitDx=0;exitDy=0;entryX=1;entryY=1;entryDx=0;entryDy=0;labelBackgroundColor=default;strokeColor=default;fontFamily=Caveat;fontSize=16;fontColor=default;endArrow=classic;sketch=1;fontSource=https%3A%2F%2Ffonts.googleapis.com%2Fcss%3Ffamily%3DCaveat;" edge="1" parent="1" source="86-RGEoSRtY8CRuYUMkT-21" target="86-RGEoSRtY8CRuYUMkT-35">
          <mxGeometry relative="1" as="geometry">
            <Array as="points">
              <mxPoint x="386" y="361" />
              <mxPoint x="122" y="361" />
            </Array>
          </mxGeometry>
        </mxCell>
        <mxCell id="86-RGEoSRtY8CRuYUMkT-21" value="Зачарование" style="ellipse;whiteSpace=wrap;html=1;aspect=fixed;direction=east;sketch=1;fontFamily=Caveat;fontSource=https%3A%2F%2Ffonts.googleapis.com%2Fcss%3Ffamily%3DCaveat;fontSize=16;fillColor=#ffe6cc;strokeColor=#d79b00;" vertex="1" parent="1">
          <mxGeometry x="374" y="341" width="80" height="80" as="geometry" />
        </mxCell>
        <mxCell id="86-RGEoSRtY8CRuYUMkT-22" style="edgeStyle=orthogonalEdgeStyle;shape=connector;rounded=0;orthogonalLoop=1;jettySize=auto;html=1;exitX=0.5;exitY=0;exitDx=0;exitDy=0;entryX=0.5;entryY=1;entryDx=0;entryDy=0;labelBackgroundColor=default;strokeColor=default;fontFamily=Caveat;fontSize=16;fontColor=default;endArrow=classic;sketch=1;fontSource=https%3A%2F%2Ffonts.googleapis.com%2Fcss%3Ffamily%3DCaveat;" edge="1" parent="1" source="86-RGEoSRtY8CRuYUMkT-28" target="86-RGEoSRtY8CRuYUMkT-32">
          <mxGeometry relative="1" as="geometry" />
        </mxCell>
        <mxCell id="86-RGEoSRtY8CRuYUMkT-23" style="edgeStyle=orthogonalEdgeStyle;shape=connector;rounded=0;orthogonalLoop=1;jettySize=auto;html=1;exitX=0.5;exitY=1;exitDx=0;exitDy=0;entryX=0.5;entryY=0;entryDx=0;entryDy=0;labelBackgroundColor=default;strokeColor=default;fontFamily=Caveat;fontSize=16;fontColor=default;endArrow=classic;sketch=1;fontSource=https%3A%2F%2Ffonts.googleapis.com%2Fcss%3Ffamily%3DCaveat;" edge="1" parent="1" source="86-RGEoSRtY8CRuYUMkT-28" target="86-RGEoSRtY8CRuYUMkT-29">
          <mxGeometry relative="1" as="geometry" />
        </mxCell>
        <mxCell id="86-RGEoSRtY8CRuYUMkT-24" style="edgeStyle=orthogonalEdgeStyle;shape=connector;rounded=0;orthogonalLoop=1;jettySize=auto;html=1;exitX=0;exitY=0.5;exitDx=0;exitDy=0;entryX=1;entryY=0.5;entryDx=0;entryDy=0;labelBackgroundColor=default;strokeColor=default;fontFamily=Caveat;fontSize=16;fontColor=default;endArrow=classic;sketch=1;fontSource=https%3A%2F%2Ffonts.googleapis.com%2Fcss%3Ffamily%3DCaveat;" edge="1" parent="1" source="86-RGEoSRtY8CRuYUMkT-28" target="86-RGEoSRtY8CRuYUMkT-38">
          <mxGeometry relative="1" as="geometry" />
        </mxCell>
        <mxCell id="86-RGEoSRtY8CRuYUMkT-25" style="edgeStyle=orthogonalEdgeStyle;shape=connector;rounded=0;orthogonalLoop=1;jettySize=auto;html=1;exitX=1;exitY=1;exitDx=0;exitDy=0;entryX=0;entryY=0;entryDx=0;entryDy=0;labelBackgroundColor=default;strokeColor=default;fontFamily=Caveat;fontSize=16;fontColor=default;endArrow=classic;sketch=1;fontSource=https%3A%2F%2Ffonts.googleapis.com%2Fcss%3Ffamily%3DCaveat;" edge="1" parent="1" source="86-RGEoSRtY8CRuYUMkT-28" target="86-RGEoSRtY8CRuYUMkT-36">
          <mxGeometry relative="1" as="geometry">
            <Array as="points">
              <mxPoint x="364" y="319" />
              <mxPoint x="364" y="504" />
            </Array>
          </mxGeometry>
        </mxCell>
        <mxCell id="86-RGEoSRtY8CRuYUMkT-26" style="edgeStyle=orthogonalEdgeStyle;shape=connector;rounded=0;orthogonalLoop=1;jettySize=auto;html=1;exitX=1;exitY=0;exitDx=0;exitDy=0;entryX=0;entryY=1;entryDx=0;entryDy=0;labelBackgroundColor=default;strokeColor=default;fontFamily=Caveat;fontSize=16;fontColor=default;endArrow=classic;sketch=1;fontSource=https%3A%2F%2Ffonts.googleapis.com%2Fcss%3Ffamily%3DCaveat;" edge="1" parent="1" source="86-RGEoSRtY8CRuYUMkT-28" target="86-RGEoSRtY8CRuYUMkT-34">
          <mxGeometry relative="1" as="geometry">
            <Array as="points">
              <mxPoint x="364" y="263" />
              <mxPoint x="364" y="79" />
            </Array>
          </mxGeometry>
        </mxCell>
        <mxCell id="86-RGEoSRtY8CRuYUMkT-27" style="edgeStyle=orthogonalEdgeStyle;shape=connector;rounded=0;orthogonalLoop=1;jettySize=auto;html=1;exitX=0;exitY=0;exitDx=0;exitDy=0;entryX=1;entryY=0.5;entryDx=0;entryDy=0;labelBackgroundColor=default;strokeColor=default;fontFamily=Caveat;fontSize=16;fontColor=default;endArrow=classic;sketch=1;fontSource=https%3A%2F%2Ffonts.googleapis.com%2Fcss%3Ffamily%3DCaveat;" edge="1" parent="1" source="86-RGEoSRtY8CRuYUMkT-28" target="86-RGEoSRtY8CRuYUMkT-35">
          <mxGeometry relative="1" as="geometry">
            <Array as="points">
              <mxPoint x="274" y="263" />
              <mxPoint x="274" y="231" />
              <mxPoint x="164" y="231" />
              <mxPoint x="164" y="291" />
            </Array>
          </mxGeometry>
        </mxCell>
        <mxCell id="86-RGEoSRtY8CRuYUMkT-28" value="Химия" style="ellipse;whiteSpace=wrap;html=1;aspect=fixed;direction=east;sketch=1;fontFamily=Caveat;fontSource=https%3A%2F%2Ffonts.googleapis.com%2Fcss%3Ffamily%3DCaveat;fontSize=16;fillColor=#dae8fc;strokeColor=#6c8ebf;" vertex="1" parent="1">
          <mxGeometry x="284" y="251" width="80" height="80" as="geometry" />
        </mxCell>
        <mxCell id="86-RGEoSRtY8CRuYUMkT-29" value="Нео- материалы" style="ellipse;whiteSpace=wrap;html=1;aspect=fixed;direction=east;labelBackgroundColor=default;endArrow=classic;fontSize=16;rounded=0;dashed=1;sketch=1;fontFamily=Caveat;fontSource=https%3A%2F%2Ffonts.googleapis.com%2Fcss%3Ffamily%3DCaveat;" vertex="1" parent="1">
          <mxGeometry x="254" y="371" width="80" height="80" as="geometry" />
        </mxCell>
        <mxCell id="86-RGEoSRtY8CRuYUMkT-30" value="Аугментации" style="ellipse;whiteSpace=wrap;html=1;aspect=fixed;direction=east;labelBackgroundColor=default;endArrow=classic;fontSize=16;rounded=0;dashed=1;sketch=1;fontFamily=Caveat;fontSource=https%3A%2F%2Ffonts.googleapis.com%2Fcss%3Ffamily%3DCaveat;" vertex="1" parent="1">
          <mxGeometry x="494" y="131" width="80" height="80" as="geometry" />
        </mxCell>
        <mxCell id="86-RGEoSRtY8CRuYUMkT-31" value="Мутагены" style="ellipse;whiteSpace=wrap;html=1;aspect=fixed;direction=east;labelBackgroundColor=default;endArrow=classic;fontSize=16;rounded=0;dashed=1;sketch=1;fontFamily=Caveat;fontSource=https%3A%2F%2Ffonts.googleapis.com%2Fcss%3Ffamily%3DCaveat;" vertex="1" parent="1">
          <mxGeometry x="494" y="371" width="80" height="80" as="geometry" />
        </mxCell>
        <mxCell id="86-RGEoSRtY8CRuYUMkT-32" value="Реактивы" style="ellipse;whiteSpace=wrap;html=1;aspect=fixed;direction=east;labelBackgroundColor=default;endArrow=classic;fontSize=16;rounded=0;dashed=1;sketch=1;fontFamily=Caveat;fontSource=https%3A%2F%2Ffonts.googleapis.com%2Fcss%3Ffamily%3DCaveat;" vertex="1" parent="1">
          <mxGeometry x="254" y="131" width="80" height="80" as="geometry" />
        </mxCell>
        <mxCell id="86-RGEoSRtY8CRuYUMkT-33" value="Некроматика" style="ellipse;whiteSpace=wrap;html=1;aspect=fixed;dashed=1;sketch=1;fontFamily=Caveat;fontSource=https%3A%2F%2Ffonts.googleapis.com%2Fcss%3Ffamily%3DCaveat;fontSize=16;" vertex="1" parent="1">
          <mxGeometry x="693" y="251" width="80" height="80" as="geometry" />
        </mxCell>
        <mxCell id="86-RGEoSRtY8CRuYUMkT-34" value="Ампли-фикации" style="ellipse;whiteSpace=wrap;html=1;aspect=fixed;dashed=1;sketch=1;fontFamily=Caveat;fontSource=https%3A%2F%2Ffonts.googleapis.com%2Fcss%3Ffamily%3DCaveat;fontSize=16;" vertex="1" parent="1">
          <mxGeometry x="374" y="11" width="80" height="80" as="geometry" />
        </mxCell>
        <mxCell id="86-RGEoSRtY8CRuYUMkT-35" value="Псевдожизнь" style="ellipse;whiteSpace=wrap;html=1;aspect=fixed;dashed=1;sketch=1;fontFamily=Caveat;fontSource=https%3A%2F%2Ffonts.googleapis.com%2Fcss%3Ffamily%3DCaveat;fontSize=16;" vertex="1" parent="1">
          <mxGeometry x="54" y="251" width="80" height="80" as="geometry" />
        </mxCell>
        <mxCell id="86-RGEoSRtY8CRuYUMkT-36" value="Гомункулы" style="ellipse;whiteSpace=wrap;html=1;aspect=fixed;dashed=1;sketch=1;fontFamily=Caveat;fontSource=https%3A%2F%2Ffonts.googleapis.com%2Fcss%3Ffamily%3DCaveat;fontSize=16;" vertex="1" parent="1">
          <mxGeometry x="374" y="492" width="80" height="80" as="geometry" />
        </mxCell>
        <mxCell id="86-RGEoSRtY8CRuYUMkT-37" value="Автоматика" style="ellipse;whiteSpace=wrap;html=1;aspect=fixed;dashed=1;direction=east;sketch=1;fontFamily=Caveat;fontSource=https%3A%2F%2Ffonts.googleapis.com%2Fcss%3Ffamily%3DCaveat;fontSize=16;" vertex="1" parent="1">
          <mxGeometry x="574" y="251" width="80" height="80" as="geometry" />
        </mxCell>
        <mxCell id="86-RGEoSRtY8CRuYUMkT-38" value="Химеры" style="ellipse;whiteSpace=wrap;html=1;aspect=fixed;dashed=1;direction=east;sketch=1;fontFamily=Caveat;fontSource=https%3A%2F%2Ffonts.googleapis.com%2Fcss%3Ffamily%3DCaveat;fontSize=16;" vertex="1" parent="1">
          <mxGeometry x="174" y="251" width="80" height="80" as="geometry" />
        </mxCell>
      </root>
    </mxGraphModel>
  </diagram>
  <diagram id="pYGURWGAMNrWkLeUSQLx" name="Волшебник">
    <mxGraphModel grid="1" page="1" gridSize="10" guides="1" tooltips="1" connect="1" arrows="1" fold="1" pageScale="1" pageWidth="827" pageHeight="583" math="0" shadow="0">
      <root>
        <mxCell id="0" />
        <mxCell id="1" parent="0" />
        <mxCell id="k1uvGi2N-Y7HjS8lRbhE-1" style="shape=connector;rounded=0;orthogonalLoop=1;jettySize=auto;html=1;exitX=0.5;exitY=1;exitDx=0;exitDy=0;entryX=0.5;entryY=0;entryDx=0;entryDy=0;labelBackgroundColor=default;strokeColor=default;fontFamily=Caveat;fontSize=14;fontColor=default;startArrow=diamondThin;startFill=1;endArrow=diamondThin;endFill=1;sketch=1;fontSource=https%3A%2F%2Ffonts.googleapis.com%2Fcss%3Ffamily%3DCaveat;" edge="1" parent="1" source="k1uvGi2N-Y7HjS8lRbhE-2" target="k1uvGi2N-Y7HjS8lRbhE-18">
          <mxGeometry relative="1" as="geometry" />
        </mxCell>
        <mxCell id="k1uvGi2N-Y7HjS8lRbhE-2" value="Прорицание" style="ellipse;whiteSpace=wrap;html=1;aspect=fixed;fontFamily=Caveat;fontSize=14;fontColor=default;sketch=1;fontSource=https%3A%2F%2Ffonts.googleapis.com%2Fcss%3Ffamily%3DCaveat;labelBackgroundColor=default;endArrow=diamondThin;rounded=0;startArrow=diamondThin;startFill=1;endFill=1;" vertex="1" parent="1">
          <mxGeometry x="1440" y="720" width="80" height="80" as="geometry" />
        </mxCell>
        <mxCell id="k1uvGi2N-Y7HjS8lRbhE-3" style="edgeStyle=none;shape=connector;rounded=0;orthogonalLoop=1;jettySize=auto;html=1;exitX=1;exitY=0.5;exitDx=0;exitDy=0;entryX=0;entryY=0;entryDx=0;entryDy=0;labelBackgroundColor=default;strokeColor=default;fontFamily=Caveat;fontSize=14;fontColor=default;startArrow=diamondThin;startFill=1;endArrow=diamondThin;endFill=1;sketch=1;fontSource=https%3A%2F%2Ffonts.googleapis.com%2Fcss%3Ffamily%3DCaveat;" edge="1" parent="1" source="k1uvGi2N-Y7HjS8lRbhE-7" target="k1uvGi2N-Y7HjS8lRbhE-2">
          <mxGeometry relative="1" as="geometry" />
        </mxCell>
        <mxCell id="k1uvGi2N-Y7HjS8lRbhE-4" style="edgeStyle=none;shape=connector;rounded=0;orthogonalLoop=1;jettySize=auto;html=1;exitX=0;exitY=0.5;exitDx=0;exitDy=0;entryX=1;entryY=0;entryDx=0;entryDy=0;labelBackgroundColor=default;strokeColor=default;fontFamily=Caveat;fontSize=14;fontColor=default;startArrow=diamondThin;startFill=1;endArrow=diamondThin;endFill=1;sketch=1;fontSource=https%3A%2F%2Ffonts.googleapis.com%2Fcss%3Ffamily%3DCaveat;" edge="1" parent="1" source="k1uvGi2N-Y7HjS8lRbhE-7" target="k1uvGi2N-Y7HjS8lRbhE-10">
          <mxGeometry relative="1" as="geometry" />
        </mxCell>
        <mxCell id="k1uvGi2N-Y7HjS8lRbhE-5" style="edgeStyle=none;shape=connector;rounded=0;orthogonalLoop=1;jettySize=auto;html=1;exitX=1;exitY=1;exitDx=0;exitDy=0;labelBackgroundColor=default;strokeColor=default;fontFamily=Caveat;fontSize=14;fontColor=default;startArrow=diamondThin;startFill=1;endArrow=diamondThin;endFill=1;sketch=1;fontSource=https%3A%2F%2Ffonts.googleapis.com%2Fcss%3Ffamily%3DCaveat;entryX=0;entryY=0;entryDx=0;entryDy=0;" edge="1" parent="1" source="k1uvGi2N-Y7HjS8lRbhE-7" target="k1uvGi2N-Y7HjS8lRbhE-18">
          <mxGeometry relative="1" as="geometry">
            <mxPoint x="1450" y="950" as="targetPoint" />
          </mxGeometry>
        </mxCell>
        <mxCell id="k1uvGi2N-Y7HjS8lRbhE-6" style="edgeStyle=none;shape=connector;rounded=0;orthogonalLoop=1;jettySize=auto;html=1;exitX=0;exitY=1;exitDx=0;exitDy=0;entryX=1;entryY=0;entryDx=0;entryDy=0;labelBackgroundColor=default;strokeColor=default;fontFamily=Caveat;fontSize=14;fontColor=default;startArrow=diamondThin;startFill=1;endArrow=diamondThin;endFill=1;sketch=1;fontSource=https%3A%2F%2Ffonts.googleapis.com%2Fcss%3Ffamily%3DCaveat;" edge="1" parent="1" source="k1uvGi2N-Y7HjS8lRbhE-7" target="k1uvGi2N-Y7HjS8lRbhE-13">
          <mxGeometry relative="1" as="geometry" />
        </mxCell>
        <mxCell id="k1uvGi2N-Y7HjS8lRbhE-7" value="Аниматургия" style="ellipse;whiteSpace=wrap;html=1;aspect=fixed;fontFamily=Caveat;fontSize=14;fontColor=default;sketch=1;fontSource=https%3A%2F%2Ffonts.googleapis.com%2Fcss%3Ffamily%3DCaveat;labelBackgroundColor=default;endArrow=diamondThin;rounded=0;startArrow=diamondThin;startFill=1;endFill=1;" vertex="1" parent="1">
          <mxGeometry x="1200" y="640" width="80" height="80" as="geometry" />
        </mxCell>
        <mxCell id="k1uvGi2N-Y7HjS8lRbhE-9" style="edgeStyle=none;shape=connector;rounded=0;orthogonalLoop=1;jettySize=auto;html=1;exitX=1;exitY=1;exitDx=0;exitDy=0;entryX=0;entryY=0;entryDx=0;entryDy=0;labelBackgroundColor=default;strokeColor=default;fontFamily=Caveat;fontSize=14;fontColor=default;startArrow=diamondThin;startFill=1;endArrow=diamondThin;endFill=1;sketch=1;fontSource=https%3A%2F%2Ffonts.googleapis.com%2Fcss%3Ffamily%3DCaveat;" edge="1" parent="1" source="k1uvGi2N-Y7HjS8lRbhE-10" target="k1uvGi2N-Y7HjS8lRbhE-17">
          <mxGeometry relative="1" as="geometry" />
        </mxCell>
        <mxCell id="k1uvGi2N-Y7HjS8lRbhE-26" style="edgeStyle=none;shape=connector;rounded=0;orthogonalLoop=1;jettySize=auto;html=1;exitX=1;exitY=0.5;exitDx=0;exitDy=0;labelBackgroundColor=default;strokeColor=default;fontFamily=Caveat;fontSize=14;fontColor=default;startArrow=diamondThin;startFill=1;endArrow=diamondThin;endFill=1;entryX=0;entryY=0.5;entryDx=0;entryDy=0;sketch=1;fontSource=https%3A%2F%2Ffonts.googleapis.com%2Fcss%3Ffamily%3DCaveat;" edge="1" parent="1" source="k1uvGi2N-Y7HjS8lRbhE-10" target="k1uvGi2N-Y7HjS8lRbhE-2">
          <mxGeometry relative="1" as="geometry">
            <mxPoint x="1390" y="770" as="targetPoint" />
          </mxGeometry>
        </mxCell>
        <mxCell id="k1uvGi2N-Y7HjS8lRbhE-10" value="Иллюзия" style="ellipse;whiteSpace=wrap;html=1;aspect=fixed;fontFamily=Caveat;fontSize=14;fontColor=default;sketch=1;fontSource=https%3A%2F%2Ffonts.googleapis.com%2Fcss%3Ffamily%3DCaveat;labelBackgroundColor=default;endArrow=diamondThin;rounded=0;startArrow=diamondThin;startFill=1;endFill=1;" vertex="1" parent="1">
          <mxGeometry x="960" y="720" width="80" height="80" as="geometry" />
        </mxCell>
        <mxCell id="k1uvGi2N-Y7HjS8lRbhE-11" style="edgeStyle=none;shape=connector;rounded=0;orthogonalLoop=1;jettySize=auto;html=1;exitX=0.5;exitY=0;exitDx=0;exitDy=0;entryX=0.5;entryY=1;entryDx=0;entryDy=0;labelBackgroundColor=default;strokeColor=default;fontFamily=Caveat;fontSize=14;fontColor=default;startArrow=diamondThin;startFill=1;endArrow=diamondThin;endFill=1;sketch=1;fontSource=https%3A%2F%2Ffonts.googleapis.com%2Fcss%3Ffamily%3DCaveat;" edge="1" parent="1" source="k1uvGi2N-Y7HjS8lRbhE-13" target="k1uvGi2N-Y7HjS8lRbhE-10">
          <mxGeometry relative="1" as="geometry" />
        </mxCell>
        <mxCell id="k1uvGi2N-Y7HjS8lRbhE-12" style="edgeStyle=none;shape=connector;rounded=0;orthogonalLoop=1;jettySize=auto;html=1;exitX=1;exitY=0.5;exitDx=0;exitDy=0;entryX=0;entryY=0.5;entryDx=0;entryDy=0;labelBackgroundColor=default;strokeColor=default;fontFamily=Caveat;fontSize=14;fontColor=default;startArrow=diamondThin;startFill=1;endArrow=diamondThin;endFill=1;sketch=1;fontSource=https%3A%2F%2Ffonts.googleapis.com%2Fcss%3Ffamily%3DCaveat;" edge="1" parent="1" source="k1uvGi2N-Y7HjS8lRbhE-13" target="k1uvGi2N-Y7HjS8lRbhE-18">
          <mxGeometry relative="1" as="geometry" />
        </mxCell>
        <mxCell id="k1uvGi2N-Y7HjS8lRbhE-13" value="Разрушение" style="ellipse;whiteSpace=wrap;html=1;aspect=fixed;fontFamily=Caveat;fontSize=14;fontColor=default;sketch=1;fontSource=https%3A%2F%2Ffonts.googleapis.com%2Fcss%3Ffamily%3DCaveat;labelBackgroundColor=default;endArrow=diamondThin;rounded=0;startArrow=diamondThin;startFill=1;endFill=1;" vertex="1" parent="1">
          <mxGeometry x="960" y="960" width="80" height="80" as="geometry" />
        </mxCell>
        <mxCell id="k1uvGi2N-Y7HjS8lRbhE-14" style="edgeStyle=none;shape=connector;rounded=0;orthogonalLoop=1;jettySize=auto;html=1;exitX=1;exitY=0.5;exitDx=0;exitDy=0;labelBackgroundColor=default;strokeColor=default;fontFamily=Caveat;fontSize=14;fontColor=default;startArrow=diamondThin;startFill=1;endArrow=diamondThin;endFill=1;sketch=1;fontSource=https%3A%2F%2Ffonts.googleapis.com%2Fcss%3Ffamily%3DCaveat;entryX=0;entryY=1;entryDx=0;entryDy=0;" edge="1" parent="1" source="k1uvGi2N-Y7HjS8lRbhE-17" target="k1uvGi2N-Y7HjS8lRbhE-18">
          <mxGeometry relative="1" as="geometry">
            <mxPoint x="1450" y="1040" as="targetPoint" />
          </mxGeometry>
        </mxCell>
        <mxCell id="k1uvGi2N-Y7HjS8lRbhE-15" style="edgeStyle=none;shape=connector;rounded=0;orthogonalLoop=1;jettySize=auto;html=1;exitX=0;exitY=0.5;exitDx=0;exitDy=0;entryX=1;entryY=1;entryDx=0;entryDy=0;labelBackgroundColor=default;strokeColor=default;fontFamily=Caveat;fontSize=14;fontColor=default;startArrow=diamondThin;startFill=1;endArrow=diamondThin;endFill=1;sketch=1;fontSource=https%3A%2F%2Ffonts.googleapis.com%2Fcss%3Ffamily%3DCaveat;" edge="1" parent="1" source="k1uvGi2N-Y7HjS8lRbhE-17" target="k1uvGi2N-Y7HjS8lRbhE-13">
          <mxGeometry relative="1" as="geometry" />
        </mxCell>
        <mxCell id="k1uvGi2N-Y7HjS8lRbhE-16" style="edgeStyle=none;shape=connector;rounded=0;orthogonalLoop=1;jettySize=auto;html=1;exitX=1;exitY=0;exitDx=0;exitDy=0;entryX=0;entryY=1;entryDx=0;entryDy=0;labelBackgroundColor=default;strokeColor=default;fontFamily=Caveat;fontSize=14;fontColor=default;startArrow=diamondThin;startFill=1;endArrow=diamondThin;endFill=1;sketch=1;fontSource=https%3A%2F%2Ffonts.googleapis.com%2Fcss%3Ffamily%3DCaveat;" edge="1" parent="1" source="k1uvGi2N-Y7HjS8lRbhE-17" target="k1uvGi2N-Y7HjS8lRbhE-2">
          <mxGeometry relative="1" as="geometry" />
        </mxCell>
        <mxCell id="k1uvGi2N-Y7HjS8lRbhE-17" value="Трансмутация" style="ellipse;whiteSpace=wrap;html=1;aspect=fixed;fontFamily=Caveat;fontSize=14;fontColor=default;sketch=1;fontSource=https%3A%2F%2Ffonts.googleapis.com%2Fcss%3Ffamily%3DCaveat;labelBackgroundColor=default;endArrow=diamondThin;rounded=0;startArrow=diamondThin;startFill=1;endFill=1;" vertex="1" parent="1">
          <mxGeometry x="1200" y="1040" width="80" height="80" as="geometry" />
        </mxCell>
        <mxCell id="k1uvGi2N-Y7HjS8lRbhE-18" value="Релокация" style="ellipse;whiteSpace=wrap;html=1;aspect=fixed;fontFamily=Caveat;fontSize=14;fontColor=default;sketch=1;fontSource=https%3A%2F%2Ffonts.googleapis.com%2Fcss%3Ffamily%3DCaveat;labelBackgroundColor=default;endArrow=diamondThin;rounded=0;startArrow=diamondThin;startFill=1;endFill=1;" vertex="1" parent="1">
          <mxGeometry x="1440" y="960" width="80" height="80" as="geometry" />
        </mxCell>
        <mxCell id="k1uvGi2N-Y7HjS8lRbhE-19" style="shape=connector;rounded=0;orthogonalLoop=1;jettySize=auto;html=1;exitX=0.5;exitY=0;exitDx=0;exitDy=0;entryX=0.5;entryY=1;entryDx=0;entryDy=0;labelBackgroundColor=default;strokeColor=default;fontFamily=Caveat;fontSize=14;fontColor=default;endArrow=diamondThin;endFill=1;startArrow=diamondThin;startFill=1;sketch=1;fontSource=https%3A%2F%2Ffonts.googleapis.com%2Fcss%3Ffamily%3DCaveat;" edge="1" parent="1" source="k1uvGi2N-Y7HjS8lRbhE-25" target="k1uvGi2N-Y7HjS8lRbhE-7">
          <mxGeometry relative="1" as="geometry">
            <mxPoint x="1240" y="835" as="sourcePoint" />
          </mxGeometry>
        </mxCell>
        <mxCell id="k1uvGi2N-Y7HjS8lRbhE-20" style="edgeStyle=none;shape=connector;rounded=0;orthogonalLoop=1;jettySize=auto;html=1;entryX=0.5;entryY=0;entryDx=0;entryDy=0;labelBackgroundColor=default;strokeColor=default;fontFamily=Caveat;fontSize=14;fontColor=default;startArrow=diamondThin;startFill=1;endArrow=diamondThin;endFill=1;exitX=0.5;exitY=1;exitDx=0;exitDy=0;sketch=1;fontSource=https%3A%2F%2Ffonts.googleapis.com%2Fcss%3Ffamily%3DCaveat;" edge="1" parent="1" source="k1uvGi2N-Y7HjS8lRbhE-25" target="k1uvGi2N-Y7HjS8lRbhE-17">
          <mxGeometry relative="1" as="geometry">
            <mxPoint x="1251" y="925" as="sourcePoint" />
          </mxGeometry>
        </mxCell>
        <mxCell id="k1uvGi2N-Y7HjS8lRbhE-21" style="edgeStyle=none;shape=connector;rounded=0;orthogonalLoop=1;jettySize=auto;html=1;exitX=1;exitY=0;exitDx=0;exitDy=0;entryX=0;entryY=0.5;entryDx=0;entryDy=0;labelBackgroundColor=default;strokeColor=default;fontFamily=Caveat;fontSize=14;fontColor=default;startArrow=diamondThin;startFill=1;endArrow=diamondThin;endFill=1;sketch=1;fontSource=https%3A%2F%2Ffonts.googleapis.com%2Fcss%3Ffamily%3DCaveat;" edge="1" parent="1" source="k1uvGi2N-Y7HjS8lRbhE-25" target="k1uvGi2N-Y7HjS8lRbhE-2">
          <mxGeometry relative="1" as="geometry">
            <mxPoint x="1268.2842712474617" y="846.7157287525381" as="sourcePoint" />
          </mxGeometry>
        </mxCell>
        <mxCell id="k1uvGi2N-Y7HjS8lRbhE-22" style="edgeStyle=none;shape=connector;rounded=0;orthogonalLoop=1;jettySize=auto;html=1;exitX=1;exitY=1;exitDx=0;exitDy=0;entryX=0;entryY=0.5;entryDx=0;entryDy=0;labelBackgroundColor=default;strokeColor=default;fontFamily=Caveat;fontSize=14;fontColor=default;startArrow=diamondThin;startFill=1;endArrow=diamondThin;endFill=1;sketch=1;fontSource=https%3A%2F%2Ffonts.googleapis.com%2Fcss%3Ffamily%3DCaveat;" edge="1" parent="1" source="k1uvGi2N-Y7HjS8lRbhE-25" target="k1uvGi2N-Y7HjS8lRbhE-18">
          <mxGeometry relative="1" as="geometry">
            <mxPoint x="1268.2842712474617" y="903.2842712474617" as="sourcePoint" />
          </mxGeometry>
        </mxCell>
        <mxCell id="k1uvGi2N-Y7HjS8lRbhE-23" style="edgeStyle=none;shape=connector;rounded=0;orthogonalLoop=1;jettySize=auto;html=1;exitX=0;exitY=1;exitDx=0;exitDy=0;entryX=1;entryY=0.5;entryDx=0;entryDy=0;labelBackgroundColor=default;strokeColor=default;fontFamily=Caveat;fontSize=14;fontColor=default;startArrow=diamondThin;startFill=1;endArrow=diamondThin;endFill=1;sketch=1;fontSource=https%3A%2F%2Ffonts.googleapis.com%2Fcss%3Ffamily%3DCaveat;" edge="1" parent="1" source="k1uvGi2N-Y7HjS8lRbhE-25" target="k1uvGi2N-Y7HjS8lRbhE-13">
          <mxGeometry relative="1" as="geometry">
            <mxPoint x="1211.7157287525379" y="903.2842712474619" as="sourcePoint" />
          </mxGeometry>
        </mxCell>
        <mxCell id="k1uvGi2N-Y7HjS8lRbhE-24" style="edgeStyle=none;shape=connector;rounded=0;orthogonalLoop=1;jettySize=auto;html=1;exitX=0;exitY=0;exitDx=0;exitDy=0;entryX=1;entryY=0.5;entryDx=0;entryDy=0;labelBackgroundColor=default;strokeColor=default;fontFamily=Caveat;fontSize=14;fontColor=default;startArrow=diamondThin;startFill=1;endArrow=diamondThin;endFill=1;sketch=1;fontSource=https%3A%2F%2Ffonts.googleapis.com%2Fcss%3Ffamily%3DCaveat;" edge="1" parent="1" source="k1uvGi2N-Y7HjS8lRbhE-25" target="k1uvGi2N-Y7HjS8lRbhE-10">
          <mxGeometry relative="1" as="geometry">
            <mxPoint x="1211.7157287525379" y="846.7157287525379" as="sourcePoint" />
          </mxGeometry>
        </mxCell>
        <mxCell id="k1uvGi2N-Y7HjS8lRbhE-25" value="Универсализм" style="ellipse;whiteSpace=wrap;html=1;aspect=fixed;fontFamily=Caveat;fontSize=14;fontColor=default;sketch=1;fontSource=https%3A%2F%2Ffonts.googleapis.com%2Fcss%3Ffamily%3DCaveat;labelBackgroundColor=default;endArrow=diamondThin;rounded=0;startArrow=diamondThin;startFill=1;endFill=1;" vertex="1" parent="1">
          <mxGeometry x="1200" y="835" width="80" height="80" as="geometry" />
        </mxCell>
      </root>
    </mxGraphModel>
  </diagram>
  <diagram id="euLZ52B4Ihc_oC7mXrr3" name="Жрец">
    <mxGraphModel grid="1" page="1" gridSize="10" guides="1" tooltips="1" connect="1" arrows="1" fold="1" pageScale="1" pageWidth="827" pageHeight="583" math="0" shadow="0">
      <root>
        <mxCell id="0" />
        <mxCell id="1" parent="0" />
        <mxCell id="0Fw9vnbluvUbnj_iEV30-1" value="Джастар" style="ellipse;whiteSpace=wrap;html=1;aspect=fixed;shadow=0;sketch=1;" vertex="1" parent="1">
          <mxGeometry x="374" y="252" width="80" height="80" as="geometry" />
        </mxCell>
        <mxCell id="0Fw9vnbluvUbnj_iEV30-2" value="Мортисса" style="ellipse;whiteSpace=wrap;html=1;aspect=fixed;shadow=0;sketch=1;" vertex="1" parent="1">
          <mxGeometry x="574" y="252" width="80" height="80" as="geometry" />
        </mxCell>
        <mxCell id="0Fw9vnbluvUbnj_iEV30-3" value="Сол" style="ellipse;whiteSpace=wrap;html=1;aspect=fixed;shadow=0;sketch=1;" vertex="1" parent="1">
          <mxGeometry x="374" y="52" width="80" height="80" as="geometry" />
        </mxCell>
        <mxCell id="0Fw9vnbluvUbnj_iEV30-4" value="Авар" style="ellipse;whiteSpace=wrap;html=1;aspect=fixed;shadow=0;sketch=1;" vertex="1" parent="1">
          <mxGeometry x="174" y="252" width="80" height="80" as="geometry" />
        </mxCell>
        <mxCell id="0Fw9vnbluvUbnj_iEV30-6" value="Астерио" style="ellipse;whiteSpace=wrap;html=1;aspect=fixed;shadow=0;sketch=1;" vertex="1" parent="1">
          <mxGeometry x="374" y="452" width="80" height="80" as="geometry" />
        </mxCell>
        <mxCell id="0Fw9vnbluvUbnj_iEV30-7" value="Юнай" style="ellipse;whiteSpace=wrap;html=1;aspect=fixed;shadow=0;sketch=1;" vertex="1" parent="1">
          <mxGeometry x="494" y="132" width="80" height="80" as="geometry" />
        </mxCell>
        <mxCell id="phqEhpV72DzKdC2gqX6E-1" value="Нерас" style="ellipse;whiteSpace=wrap;html=1;aspect=fixed;shadow=0;sketch=1;" vertex="1" parent="1">
          <mxGeometry x="254" y="132" width="80" height="80" as="geometry" />
        </mxCell>
        <mxCell id="phqEhpV72DzKdC2gqX6E-2" value="Архивариус" style="ellipse;whiteSpace=wrap;html=1;aspect=fixed;shadow=0;sketch=1;" vertex="1" parent="1">
          <mxGeometry x="254" y="372" width="80" height="80" as="geometry" />
        </mxCell>
        <mxCell id="phqEhpV72DzKdC2gqX6E-3" value="Сангиз" style="ellipse;whiteSpace=wrap;html=1;aspect=fixed;shadow=0;sketch=1;" vertex="1" parent="1">
          <mxGeometry x="494" y="372" width="80" height="80" as="geometry" />
        </mxCell>
        <mxCell id="NOiosDxKryF66SN-CV0s-1" value="" style="endArrow=none;html=1;rounded=0;entryX=0.5;entryY=1;entryDx=0;entryDy=0;exitX=0.5;exitY=0;exitDx=0;exitDy=0;shadow=0;sketch=1;" edge="1" parent="1" source="0Fw9vnbluvUbnj_iEV30-1" target="0Fw9vnbluvUbnj_iEV30-3">
          <mxGeometry width="50" height="50" relative="1" as="geometry">
            <mxPoint x="454" y="232" as="sourcePoint" />
            <mxPoint x="424" y="142" as="targetPoint" />
          </mxGeometry>
        </mxCell>
        <mxCell id="NOiosDxKryF66SN-CV0s-2" value="" style="endArrow=none;html=1;rounded=0;entryX=0;entryY=0.5;entryDx=0;entryDy=0;exitX=1;exitY=0.5;exitDx=0;exitDy=0;shadow=0;sketch=1;" edge="1" parent="1" source="0Fw9vnbluvUbnj_iEV30-1" target="0Fw9vnbluvUbnj_iEV30-2">
          <mxGeometry width="50" height="50" relative="1" as="geometry">
            <mxPoint x="514" y="322" as="sourcePoint" />
            <mxPoint x="454" y="272" as="targetPoint" />
            <Array as="points">
              <mxPoint x="514" y="292" />
            </Array>
          </mxGeometry>
        </mxCell>
        <mxCell id="NOiosDxKryF66SN-CV0s-4" value="" style="endArrow=none;html=1;rounded=0;exitX=0.5;exitY=0;exitDx=0;exitDy=0;entryX=0.5;entryY=1;entryDx=0;entryDy=0;shadow=0;sketch=1;" edge="1" parent="1" source="0Fw9vnbluvUbnj_iEV30-6" target="0Fw9vnbluvUbnj_iEV30-1">
          <mxGeometry width="50" height="50" relative="1" as="geometry">
            <mxPoint x="404" y="322" as="sourcePoint" />
            <mxPoint x="454" y="272" as="targetPoint" />
          </mxGeometry>
        </mxCell>
        <mxCell id="NOiosDxKryF66SN-CV0s-7" value="" style="endArrow=none;html=1;rounded=0;entryX=1;entryY=0.5;entryDx=0;entryDy=0;exitX=0;exitY=0.5;exitDx=0;exitDy=0;shadow=0;sketch=1;" edge="1" parent="1" source="0Fw9vnbluvUbnj_iEV30-1" target="0Fw9vnbluvUbnj_iEV30-4">
          <mxGeometry width="50" height="50" relative="1" as="geometry">
            <mxPoint x="424" y="332" as="sourcePoint" />
            <mxPoint x="474" y="282" as="targetPoint" />
          </mxGeometry>
        </mxCell>
        <mxCell id="NOiosDxKryF66SN-CV0s-11" value="" style="endArrow=none;html=1;rounded=0;exitX=1;exitY=0;exitDx=0;exitDy=0;entryX=0;entryY=1;entryDx=0;entryDy=0;shadow=0;sketch=1;" edge="1" parent="1" source="phqEhpV72DzKdC2gqX6E-1" target="0Fw9vnbluvUbnj_iEV30-3">
          <mxGeometry width="50" height="50" relative="1" as="geometry">
            <mxPoint x="424" y="332" as="sourcePoint" />
            <mxPoint x="474" y="282" as="targetPoint" />
          </mxGeometry>
        </mxCell>
        <mxCell id="NOiosDxKryF66SN-CV0s-12" value="" style="endArrow=none;html=1;rounded=0;entryX=0;entryY=1;entryDx=0;entryDy=0;exitX=1;exitY=0;exitDx=0;exitDy=0;shadow=0;sketch=1;" edge="1" parent="1" source="0Fw9vnbluvUbnj_iEV30-4" target="phqEhpV72DzKdC2gqX6E-1">
          <mxGeometry width="50" height="50" relative="1" as="geometry">
            <mxPoint x="414" y="312" as="sourcePoint" />
            <mxPoint x="464" y="262" as="targetPoint" />
          </mxGeometry>
        </mxCell>
        <mxCell id="NOiosDxKryF66SN-CV0s-17" value="" style="endArrow=none;html=1;rounded=0;exitX=1;exitY=0;exitDx=0;exitDy=0;entryX=0;entryY=1;entryDx=0;entryDy=0;shadow=0;sketch=1;" edge="1" parent="1" source="0Fw9vnbluvUbnj_iEV30-6" target="phqEhpV72DzKdC2gqX6E-3">
          <mxGeometry width="50" height="50" relative="1" as="geometry">
            <mxPoint x="434" y="352" as="sourcePoint" />
            <mxPoint x="484" y="302" as="targetPoint" />
          </mxGeometry>
        </mxCell>
        <mxCell id="NOiosDxKryF66SN-CV0s-19" value="" style="endArrow=none;html=1;rounded=0;exitX=1;exitY=1;exitDx=0;exitDy=0;entryX=0;entryY=0;entryDx=0;entryDy=0;shadow=0;sketch=1;" edge="1" parent="1" source="phqEhpV72DzKdC2gqX6E-2" target="0Fw9vnbluvUbnj_iEV30-6">
          <mxGeometry width="50" height="50" relative="1" as="geometry">
            <mxPoint x="434" y="352" as="sourcePoint" />
            <mxPoint x="484" y="302" as="targetPoint" />
          </mxGeometry>
        </mxCell>
        <mxCell id="NOiosDxKryF66SN-CV0s-20" value="" style="endArrow=none;html=1;rounded=0;exitX=0;exitY=0;exitDx=0;exitDy=0;entryX=1;entryY=1;entryDx=0;entryDy=0;shadow=0;sketch=1;" edge="1" parent="1" source="phqEhpV72DzKdC2gqX6E-2" target="0Fw9vnbluvUbnj_iEV30-4">
          <mxGeometry width="50" height="50" relative="1" as="geometry">
            <mxPoint x="434" y="352" as="sourcePoint" />
            <mxPoint x="484" y="302" as="targetPoint" />
          </mxGeometry>
        </mxCell>
        <mxCell id="NOiosDxKryF66SN-CV0s-21" value="" style="endArrow=none;html=1;rounded=0;exitX=0;exitY=0;exitDx=0;exitDy=0;entryX=1;entryY=1;entryDx=0;entryDy=0;shadow=0;sketch=1;" edge="1" parent="1" source="0Fw9vnbluvUbnj_iEV30-2" target="0Fw9vnbluvUbnj_iEV30-7">
          <mxGeometry width="50" height="50" relative="1" as="geometry">
            <mxPoint x="434" y="352" as="sourcePoint" />
            <mxPoint x="484" y="302" as="targetPoint" />
          </mxGeometry>
        </mxCell>
        <mxCell id="NOiosDxKryF66SN-CV0s-22" value="" style="endArrow=none;html=1;rounded=0;entryX=1;entryY=0;entryDx=0;entryDy=0;exitX=0;exitY=1;exitDx=0;exitDy=0;shadow=0;sketch=1;" edge="1" parent="1" source="0Fw9vnbluvUbnj_iEV30-2" target="phqEhpV72DzKdC2gqX6E-3">
          <mxGeometry width="50" height="50" relative="1" as="geometry">
            <mxPoint x="434" y="352" as="sourcePoint" />
            <mxPoint x="484" y="302" as="targetPoint" />
          </mxGeometry>
        </mxCell>
        <mxCell id="NOiosDxKryF66SN-CV0s-23" value="" style="endArrow=none;html=1;rounded=0;entryX=1;entryY=1;entryDx=0;entryDy=0;exitX=0;exitY=0;exitDx=0;exitDy=0;shadow=0;sketch=1;" edge="1" parent="1" source="0Fw9vnbluvUbnj_iEV30-7" target="0Fw9vnbluvUbnj_iEV30-3">
          <mxGeometry width="50" height="50" relative="1" as="geometry">
            <mxPoint x="494" y="162" as="sourcePoint" />
            <mxPoint x="484" y="262" as="targetPoint" />
          </mxGeometry>
        </mxCell>
      </root>
    </mxGraphModel>
  </diagram>
  <diagram id="gHNjKfTvuvR4NJii73FV" name="Страница 6">
    <mxGraphModel grid="1" page="1" gridSize="10" guides="1" tooltips="1" connect="1" arrows="1" fold="1" pageScale="1" pageWidth="827" pageHeight="583" math="0" shadow="0">
      <root>
        <mxCell id="0" />
        <mxCell id="1" parent="0" />
      </root>
    </mxGraphModel>
  </diagram>
</mxfile>
